%TF.GenerationSoftware,KiCad,Pcbnew,(6.0.5)*%
%TF.CreationDate,2022-06-20T13:52:22+01:00*%
%TF.ProjectId,Sweepy,53776565-7079-42e6-9b69-6361645f7063,rev?*%
%TF.SameCoordinates,Original*%
%TF.FileFunction,Profile,NP*%
%FSLAX46Y46*%
G04 Gerber Fmt 4.6, Leading zero omitted, Abs format (unit mm)*
G04 Created by KiCad (PCBNEW (6.0.5)) date 2022-06-20 13:52:22*
%MOMM*%
%LPD*%
G01*
G04 APERTURE LIST*
%TA.AperFunction,Profile*%
%ADD10C,0.050000*%
%TD*%
%TA.AperFunction,Profile*%
%ADD11C,0.100000*%
%TD*%
G04 APERTURE END LIST*
D10*
X21610425Y-80226425D02*
X37410425Y-90926425D01*
X127937536Y-47599211D02*
X127910425Y-22426425D01*
X127937489Y-47399213D02*
G75*
G03*
X129972537Y-49330129I2000011J70013D01*
G01*
X146627488Y-50077212D02*
G75*
G03*
X145877535Y-49327212I-749988J12D01*
G01*
X37310426Y-91026423D02*
G75*
G03*
X39710425Y-91666425I12931374J43672523D01*
G01*
X129972537Y-49330129D02*
X145877535Y-49327212D01*
X146627535Y-58055212D02*
X146627535Y-66183212D01*
X146627535Y-50077212D02*
X146627535Y-58055212D01*
X146627535Y-66183212D02*
X146620425Y-86486425D01*
D11*
X125210425Y-19126425D02*
X90910425Y-19126425D01*
D10*
X56511526Y-91681637D02*
X39710425Y-91666425D01*
X134110425Y-108426425D02*
X145670425Y-88756425D01*
D11*
X116110425Y-110426424D02*
G75*
G03*
X56511526Y-91681637I-58198585J-80922426D01*
G01*
X20510411Y-77226425D02*
G75*
G03*
X21610425Y-80226425I4289389J-128875D01*
G01*
X127910416Y-22426425D02*
G75*
G03*
X125210425Y-19126425I-3397316J-25075D01*
G01*
D10*
X145670444Y-88756438D02*
G75*
G03*
X146620425Y-86486425I-4886244J3378638D01*
G01*
D11*
X90910425Y-19126424D02*
G75*
G03*
X21110425Y-50426425I4516045J-103549036D01*
G01*
D10*
X116110423Y-110426429D02*
G75*
G03*
X134110425Y-108426425I7584027J13743739D01*
G01*
X20510425Y-52426425D02*
X20510425Y-77226425D01*
D11*
X21110426Y-50426426D02*
G75*
G03*
X20510425Y-52426425I2334574J-1790374D01*
G01*
M02*
